<?xml version="1.0" encoding="UTF-8" standalone="no"?>
<svg
   height="16px"
   viewBox="0 0 16 16"
   width="16px"
   fill="#000000"
   version="1.1"
   id="svg2"
   sodipodi:docname="mms_black_24dp.svg"
   inkscape:version="1.3 (0e150ed6c4, 2023-07-21)"
   xmlns:inkscape="http://www.inkscape.org/namespaces/inkscape"
   xmlns:sodipodi="http://sodipodi.sourceforge.net/DTD/sodipodi-0.dtd"
   xmlns="http://www.w3.org/2000/svg"
   xmlns:svg="http://www.w3.org/2000/svg">
  <defs
     id="defs2" />
  <sodipodi:namedview
     id="namedview2"
     pagecolor="#ffffff"
     bordercolor="#666666"
     borderopacity="1.0"
     inkscape:showpageshadow="2"
     inkscape:pageopacity="0.0"
     inkscape:pagecheckerboard="0"
     inkscape:deskcolor="#d1d1d1"
     inkscape:zoom="4.5354271"
     inkscape:cx="-38.474877"
     inkscape:cy="-14.221373"
     inkscape:window-width="1920"
     inkscape:window-height="1017"
     inkscape:window-x="-8"
     inkscape:window-y="-8"
     inkscape:window-maximized="1"
     inkscape:current-layer="svg2" />
  <path
     d="M 19.07425,8.1273406 C 12.834395,7.6405456 10.802556,8.2950955 6.5883797,8.2331911 5.0166748,8.2101035 4.8252313,10.949636 4.8642253,14.673736 l 0.4621866,0.223687 c 3.6541305,0.12383 9.5562541,0.350485 13.7521441,0.275754 0.346489,-4.661427 0.06559,-4.668625 -0.0043,-7.0458364 z"
     id="path4"
     sodipodi:nodetypes="cscccc"
     style="fill:#916f6f" />
  <path
     d="M0 0h24v24H0z"
     fill="#0008ff"
     id="path1"
     style="opacity:1;fill:none" />
  <path
     style="vector-effect:non-scaling-stroke;fill:#ffffff;stroke:#ffffff;stroke-width:1;stroke-linecap:butt;stroke-linejoin:miter;stroke-dasharray:none;stroke-opacity:1;-inkscape-stroke:hairline"
     d="m 13.063819,9.4257937 c 0.406907,-0.3560437 0.07386,-0.041745 0.33073,-0.3307296 0.03453,-0.038842 0.0735,-0.073495 0.110243,-0.1102432 0.03675,-0.036748 0.0735,-0.073495 0.110243,-0.1102432 0.04594,-0.045935 0.09722,-0.087078 0.137804,-0.137804 0.03346,-0.04183 0.05054,-0.094949 0.08268,-0.137804 0.169115,-0.2254865 -0.0043,0.078516 0.165365,-0.1929256 0.02177,-0.03484 0.03474,-0.074571 0.05512,-0.1102432 0.01643,-0.02876 0.03869,-0.053923 0.05512,-0.082682 0.02038,-0.035672 0.03675,-0.073495 0.05512,-0.1102432 0.02756,-0.055122 0.05211,-0.1118569 0.08268,-0.1653648 0.0701,-0.1226798 -0.02255,0.1114888 0.05512,-0.082682 0.02241,-0.056025 0.0228,-0.089328 0.05512,-0.137804 0.0072,-0.01081 0.02035,-0.016751 0.02756,-0.027561 0.0114,-0.017092 0.01837,-0.036748 0.02756,-0.055122 0.0092,-0.018374 0.01524,-0.038687 0.02756,-0.055122 0.489907,0.4535292 1.177409,1.1039105 0.05512,-0.055122 0.0092,-0.00919 0.01675,-0.020354 0.02756,-0.027561 0.01709,-0.011395 0.03803,-0.016166 0.05512,-0.027561 0.01081,-0.00721 0.01837,-0.018374 0.02756,-0.027561 0.0092,-0.00919 0.01594,-0.02175 0.02756,-0.027561 0.0082,-0.00411 0.01865,0.00223 0.02756,0 0.26647,-0.1811931 0.324834,0.1624198 0.496085,0.248047 0.15846,0.1612482 0.928744,0.896156 0.02756,0.1102432 0.06655,0.1996343 -0.0079,-0.043453 0.05512,0.082682 0.278031,0.3563108 0.236657,0.5333784 0.46852,0.7992642 0.0092,0.00919 0.01675,0.020354 0.02756,0.027561 0.01837,0.00919 0.03675,0.018374 0.05512,0.027561 0,0.00919 -0.0065,0.021065 0,0.027561 0.07711,0.00949 0,0.1522838 0,0.220487 -0.05151,0.1443237 0.01794,0.2691731 0.02756,0.4134116 0.01623,0.02029 0.03953,0.034334 0.05512,0.055122 0.02014,0.026855 0.0214,0.065823 0.05512,0.082682 0.0082,0.00411 0.02756,0.00919 0.02756,0 0,-0.00919 -0.01837,0 -0.02756,0 -0.01837,0 -0.037,0.00302 -0.05512,0 -0.03736,-0.00623 -0.07274,-0.022204 -0.110243,-0.027561 -0.02728,-0.0039 -0.05512,0 -0.08268,0 h -0.05512 -0.08268 -0.35829 -0.08268 c -0.02756,0 -0.05595,0.00668 -0.08268,0 -0.0126,-0.00315 -0.01523,-0.023452 -0.02756,-0.027561 -0.01743,-0.00581 -0.03675,0 -0.05512,0 -0.0092,0 -0.01934,0.00411 -0.02756,0 -0.01162,-0.00581 -0.01675,-0.020354 -0.02756,-0.027561 -0.05477,0.00172 -0.05636,-0.056363 -0.08268,-0.082683 -0.04529,-0.026947 -0.01991,0.013272 -0.08268,0.055122 0,0.045935 0.0065,0.092331 0,0.137804 -0.0029,0.020336 -0.02353,0.034978 -0.02756,0.055122 -0.0054,0.027026 0,0.055122 0,0.082682 v 0.027561 c 0,0.00919 0.0065,0.021065 0,0.027561 -0.0065,0.0065 -0.01837,0 -0.02756,0 -0.0092,0 -0.01934,-0.00411 -0.02756,0 -0.01162,0.00581 -0.01524,0.023452 -0.02756,0.027561 -0.01743,0.00581 -0.03675,0 -0.05512,0 h -0.137804 -0.08268 c -0.0092,0 -0.02107,-0.0065 -0.02756,0 -0.0065,0.0065 0.0018,0.018552 0,0.027561 -0.0074,0.037143 -0.01558,0.074308 -0.02756,0.1102432 -0.0065,0.019488 -0.01993,0.036048 -0.02756,0.055122 -0.01079,0.026974 -0.01457,0.056698 -0.02756,0.082682 -0.0058,0.01162 -0.02345,0.01524 -0.02756,0.02756 -0.0058,0.01743 0.0082,0.03869 0,0.05512 -0.0041,0.0082 -0.02107,-0.0065 -0.02756,0 -0.0065,0.0065 0.0065,0.02106 0,0.02756 -0.0065,0.0065 -0.01837,0 -0.02756,0 h -0.02756 c -0.02756,0 -0.05594,0.0067 -0.08268,0 -0.0126,-0.0032 -0.01457,-0.02756 -0.02756,-0.02756 -0.0092,0 0.0074,0.02214 0,0.02756 -0.09077,0.06637 -0.137685,2e-6 -0.303168,3e-6 -0.0092,-0.01837 -0.02107,-0.03563 -0.02756,-0.05512 -0.0029,-0.0087 0,-0.01837 0,-0.02756 0,-0.0092 0.0065,-0.02107 0,-0.02756 -0.0065,-0.0065 -0.02345,0.0082 -0.02756,0 -0.02756,-0.055121 0.01378,-0.041341 0,-0.082682 -0.0065,-0.019488 -0.02107,-0.035633 -0.02756,-0.055122 -0.0029,-0.00872 0.0041,-0.019344 0,-0.027561 -0.0058,-0.011621 -0.01837,-0.018374 -0.02756,-0.027561 -0.0092,-0.00919 -0.01837,-0.018374 -0.02756,-0.027561 -0.01837,-0.018374 -0.031,-0.045471 -0.05512,-0.055122 -0.02559,-0.010236 -0.05566,0.00541 -0.08268,0 -0.02014,-0.00403 -0.03519,-0.022578 -0.05512,-0.027561 -0.01782,-0.00446 -0.037,0.00302 -0.05512,0 -0.03736,-0.00623 -0.0731,-0.020132 -0.110244,-0.027561 -0.009,-0.0018 -0.02106,0.0065 -0.02756,0 -0.0065,-0.0065 0.0065,-0.021065 0,-0.027561 -0.0065,-0.0065 -0.02107,0.0065 -0.02756,0 -0.0065,-0.0065 0,-0.018374 0,-0.027561 v -0.055122 c 0,-0.00919 0.0041,-0.019344 0,-0.027561 -0.02396,-0.047913 -0.05512,-0.091869 -0.08268,-0.137804 z"
     id="path6"
     sodipodi:nodetypes="sccccccssccscscccsscccscccccccsscssssscccsssssscsccssssssscsccssccccssscsscssccccsccsscsssscsscss" />
  <path
     style="fill:#ffffff;stroke:#fefefe;stroke-width:1;stroke-linecap:butt;stroke-linejoin:miter;stroke-opacity:1;stroke-dasharray:none;vector-effect:non-scaling-stroke;-inkscape-stroke:hairline"
     d="m 8.4336049,9.0399425 c 0.036748,0.027561 0.072023,0.057202 0.1102432,0.082682 0.017093,0.011395 0.038029,0.016166 0.055122,0.027561 0.01081,0.00721 0.018374,0.018374 0.027561,0.027561 0.027561,0.027561 0.050252,0.061062 0.082682,0.082682 0.024172,0.016115 0.059441,0.01013 0.082682,0.027561 0.016434,0.012325 0.013035,0.040596 0.027561,0.055122 0.014526,0.014526 0.038687,0.015235 0.055122,0.027561 0.020788,0.015591 0.036748,0.036748 0.055122,0.055122 0.00919,0.00919 0.019765,0.017167 0.027561,0.027561 0.019874,0.026499 0.031699,0.05926 0.055122,0.082682 0.023422,0.023422 0.057533,0.033565 0.082682,0.055122 0.039458,0.033821 0.070785,0.076422 0.1102432,0.1102432 0.02515,0.021557 0.057236,0.033916 0.082682,0.055122 0.029943,0.024952 0.055122,0.055122 0.082682,0.082682 0.027561,0.027561 0.055122,0.055122 0.082682,0.082682 0.027561,0.027561 0.055122,0.055122 0.082682,0.082682 0.027561,0.02756 0.057317,0.05309 0.082682,0.08268 0.029894,0.03488 0.047806,0.08035 0.082682,0.110243 0.031194,0.02674 0.075403,0.03335 0.1102432,0.05512 0.087354,0.0546 0.1024699,0.07491 0.1653648,0.137804 0.01494,0.01494 0.041078,0.02809 0.02756,0.05512 -0.00581,0.01162 -0.018373,0.01837 -0.02756,0.02756 -0.018374,0.01837 -0.034334,0.03953 -0.055122,0.05512 -0.016434,0.01233 -0.037286,0.01737 -0.055122,0.02756 -0.046511,0.02658 -0.094214,0.05155 -0.137804,0.08268 -0.021145,0.0151 -0.03284,0.04175 -0.055122,0.05512 -0.024912,0.01495 -0.055122,0.01837 -0.082682,0.02756 -0.027561,0.0092 -0.055122,0.01837 -0.082682,0.02756 -0.027561,0.0092 -0.054749,0.01958 -0.082682,0.02756 -0.036421,0.01041 -0.073822,0.01716 -0.1102432,0.02756 -0.027934,0.008 -0.055122,0.01837 -0.082682,0.02756 -0.027561,0.0092 -0.054195,0.02186 -0.082682,0.02756 -0.018017,0.0036 -0.036748,0 -0.055122,0 -0.018374,0 -0.036748,0 -0.055122,0 -0.018374,0 -0.036748,0 -0.055122,0 -0.027561,0 -0.055497,0.0045 -0.082682,0 -0.028656,-0.0048 -0.054498,-0.02051 -0.082682,-0.02756 -0.00891,-0.0022 -0.018845,0.0029 -0.027561,0 -0.019488,-0.0065 -0.035633,-0.02106 -0.055122,-0.02756 -0.00872,-0.0029 -0.018374,0 -0.027561,0 -0.00919,0 -0.019344,0.0041 -0.027561,0 -0.099014,-0.04951 0.098604,-0.02031 -0.1102432,-0.05512 -0.027186,-0.0045 -0.055497,0.0045 -0.082682,0 -0.028656,-0.0048 -0.054026,-0.02278 -0.082682,-0.02756 -0.027186,-0.0045 -0.055122,0 -0.082682,0 -0.027561,0 -0.055122,0 -0.082682,0 -0.018374,0 -0.036748,0 -0.055122,0 -0.00919,0 -0.027561,-0.0092 -0.027561,0 0,0.0092 0.019344,-0.0041 0.027561,0 0.011621,0.0058 0.019765,0.01717 0.027561,0.02756 0.019874,0.0265 0.035869,0.05573 0.055122,0.08268 0.026699,0.03738 0.055983,0.07287 0.082682,0.110244 0.019253,0.02695 0.035247,0.05618 0.055122,0.08268 0.0078,0.01039 0.027561,0.01457 0.027561,0.02756 0,0.0092 -0.018374,0 -0.027561,0 -0.036748,0 -0.073495,0 -0.1102432,0 -0.036748,0 -0.074593,0.0089 -0.1102432,0 -0.039859,-0.01 -0.073495,-0.03675 -0.1102432,-0.05512 -0.045935,-0.0092 -0.092075,-0.0174 -0.137804,-0.02756 -0.061308,0.0257 -0.1137106,-0.04221 -0.1653648,-0.05512 -0.017825,-0.0045 -0.038687,0.0082 -0.055122,0 -0.00822,-0.0041 0.0065,-0.02107 0,-0.02756 -0.0065,-0.0065 -0.018374,0 -0.027561,0 -0.00919,0 -0.019344,0.0041 -0.027561,0 -0.011621,-0.0058 -0.01594,-0.02175 -0.027561,-0.02756 -0.00822,-0.0041 -0.018845,0.0029 -0.027561,0 -0.019489,-0.0065 -0.035633,-0.02106 -0.055122,-0.02756 -0.00872,-0.0029 -0.019344,0.0041 -0.027561,0 -0.011621,-0.0058 -0.018374,-0.01837 -0.027561,-0.02756 -0.00919,-0.0092 -0.018374,-0.01837 -0.027561,-0.02756 -0.027561,-0.02756 -0.050252,-0.06106 -0.082682,-0.08268 -0.024172,-0.01611 -0.057771,-0.01261 -0.082682,-0.02756 -0.022282,-0.01337 -0.03188,-0.0435 -0.055122,-0.05512 -0.016434,-0.0082 -0.036748,0 -0.055122,0 -0.00919,0 -0.019344,0.0041 -0.027561,0 -0.011621,-0.0058 -0.01594,-0.02175 -0.027561,-0.02756 -0.00822,-0.0041 -0.021065,0.0065 -0.027561,0 -0.0065,-0.0065 0,-0.01837 0,-0.02756 0,-0.01837 0,-0.03675 0,-0.05512 0,-0.01837 -0.00822,-0.03869 0,-0.05512 0.032776,-0.06555 0.1131469,-0.07294 0.1653648,-0.110243 0.3141513,-0.224394 -0.1540484,0.03846 0.1929256,-0.110243 0.030446,-0.01305 0.055122,-0.03675 0.082682,-0.05512 0.027561,-0.01837 0.057236,-0.03392 0.082682,-0.05512 0.029943,-0.02495 0.052247,-0.05833 0.082682,-0.08268 0.016041,-0.01283 0.038687,-0.01524 0.055122,-0.02756 0.020788,-0.01559 0.036748,-0.036747 0.055122,-0.055121 0.00919,-0.00919 0.018374,-0.018374 0.027561,-0.027561 0.00919,-0.00919 0.02175,-0.01594 0.027561,-0.027561 0.00411,-0.00822 -0.00291,-0.018845 0,-0.027561 0.0065,-0.019488 0.022579,-0.035192 0.027561,-0.055122 0.00446,-0.017825 -0.00446,-0.037296 0,-0.055122 0.00498,-0.019929 0.022578,-0.035192 0.027561,-0.055122 0.00446,-0.017825 0,-0.036748 0,-0.055122 0,-0.027561 0,-0.055122 0,-0.082682 0,-0.00919 -0.00291,-0.018845 0,-0.027561 0.0065,-0.019488 0.021065,-0.035633 0.027561,-0.055122 0.00291,-0.00872 -0.00411,-0.019344 0,-0.027561 0.00581,-0.011621 0.02175,-0.01594 0.027561,-0.027561 0.00411,-0.00822 -0.00411,-0.019344 0,-0.027561 0.00581,-0.011621 0.018374,-0.018374 0.027561,-0.027561 0.040298,-0.040298 0.077815,-0.095246 0.137804,-0.1102432 0.058218,-0.014555 0.058193,0.024489 0.1102432,-0.027561 0.0065,-0.0065 -0.00411,-0.019344 0,-0.027561 0.057351,-0.1147015 -0.0019,0.029464 0.055122,-0.027561 0.0065,-0.0065 -0.0065,-0.021065 0,-0.027561 0.0065,-0.0065 0.018374,0 0.027561,0 0.027561,-0.036748 0.055122,-0.073495 0.082682,-0.1102432 z"
     id="path5" />
  <path
     d="M 20,2 H 4 C 2.9,2 2.01,2.9 2.01,4 L 2,22 6,18 h 14 c 1.1,0 2,-0.9 2,-2 V 4 C 22,2.9 21.1,2 20,2 Z M 5,14 8.5,9.5 11,12.51 14.5,8 19,14 Z"
     id="path2"
     style="display:inline" />
  <g
     inkscape:groupmode="layer"
     id="layer2"
     inkscape:label="path3" />
</svg>
