<?xml version="1.0" encoding="UTF-8" standalone="no"?>
<svg
   height="16px"
   viewBox="0 0 16 16"
   width="16px"
   fill="#000000"
   version="1.1"
   id="svg2"
   sodipodi:docname="mms_black_24dp.svg"
   inkscape:version="1.3 (0e150ed6c4, 2023-07-21)"
   xmlns:inkscape="http://www.inkscape.org/namespaces/inkscape"
   xmlns:sodipodi="http://sodipodi.sourceforge.net/DTD/sodipodi-0.dtd"
   xmlns="http://www.w3.org/2000/svg"
   xmlns:svg="http://www.w3.org/2000/svg">
  <defs
     id="defs2" />
  <sodipodi:namedview
     id="namedview2"
     pagecolor="#ffffff"
     bordercolor="#666666"
     borderopacity="1.0"
     inkscape:showpageshadow="2"
     inkscape:pageopacity="0.0"
     inkscape:pagecheckerboard="0"
     inkscape:deskcolor="#d1d1d1"
     inkscape:zoom="9.0708542"
     inkscape:cx="-14.607224"
     inkscape:cy="4.685336"
     inkscape:window-width="1920"
     inkscape:window-height="1017"
     inkscape:window-x="-8"
     inkscape:window-y="-8"
     inkscape:window-maximized="1"
     inkscape:current-layer="svg2" />
  <path
     d="M 13.09346,5.2116852 C 8.6007644,4.8611928 7.1378405,5.3324688 4.1036334,5.2878976 2.9720058,5.2712745 2.8341665,7.2437381 2.8622422,9.92509 l 0.3327743,0.161054 c 2.630974,0.08915 6.8805035,0.252349 9.9015435,0.198544 0.249472,-3.356228 0.04722,-3.3614106 -0.0031,-5.0730028 z"
     id="path4"
     sodipodi:nodetypes="csccccc"
     style="fill:#916f6f;stroke-width:0.72" />
  <path
     d="M -0.64,-0.64 H 16.64 V 16.64 H -0.64 Z"
     fill="#0008ff"
     id="path1"
     style="opacity:1;fill:none;stroke-width:0.72"
     sodipodi:nodetypes="ccccc" />
  <path
     style="vector-effect:non-scaling-stroke;fill:#ffffff;stroke:#ffffff;stroke-width:0.72;stroke-linecap:butt;stroke-linejoin:miter;stroke-dasharray:none;stroke-opacity:1;-inkscape-stroke:hairline"
     d="M 8.7659495,6.1465715 C 9.058923,5.89022 8.8191305,6.1165151 9.004075,5.9084462 c 0.02486,-0.027967 0.05292,-0.052916 0.07938,-0.079376 0.02646,-0.026458 0.05292,-0.052916 0.07937,-0.079376 0.03307,-0.033073 0.07,-0.062696 0.09922,-0.099219 0.02409,-0.030118 0.03639,-0.068363 0.05953,-0.099219 0.121763,-0.1623503 -0.0031,0.056532 0.119063,-0.1389064 0.01568,-0.025085 0.02501,-0.053691 0.03969,-0.079376 0.01183,-0.020707 0.02786,-0.038824 0.03969,-0.059531 0.01467,-0.025684 0.02646,-0.052916 0.03969,-0.079376 0.01985,-0.039688 0.03752,-0.080537 0.05953,-0.1190628 0.05047,-0.08833 -0.01624,0.080272 0.03969,-0.059531 0.01614,-0.040338 0.01642,-0.064316 0.03969,-0.099219 0.0052,-0.00779 0.01465,-0.012061 0.01985,-0.019844 0.0082,-0.012307 0.01323,-0.026458 0.01985,-0.039688 0.0067,-0.013229 0.01097,-0.027855 0.01985,-0.039688 0.352733,0.326541 0.847734,0.7948155 0.03969,-0.039688 0.0067,-0.00662 0.01206,-0.014655 0.01985,-0.019844 0.0123,-0.00821 0.02738,-0.01164 0.03969,-0.019844 0.0077,-0.00519 0.01323,-0.013229 0.01985,-0.019844 0.0067,-0.00662 0.01148,-0.01566 0.01985,-0.019844 0.0059,-0.00296 0.01343,0.0016 0.01985,0 0.191858,-0.1304591 0.23388,0.1169423 0.357181,0.1785938 0.114091,0.1160987 0.668695,0.6452323 0.01985,0.079376 0.04792,0.1437367 -0.0057,-0.031286 0.03969,0.059531 0.200182,0.2565437 0.170393,0.3840324 0.337334,0.5754702 0.0067,0.00662 0.01206,0.014655 0.01985,0.019844 0.01323,0.00661 0.02646,0.013229 0.03969,0.019844 0,0.00662 -0.0047,0.015167 0,0.019844 0.05552,0.00683 0,0.1096444 0,0.1587506 -0.03709,0.1039131 0.01291,0.1938047 0.01985,0.2976564 0.01168,0.014609 0.02846,0.02472 0.03969,0.039688 0.0145,0.019336 0.01541,0.047392 0.03969,0.059531 0.0059,0.00296 0.01985,0.00662 0.01985,0 0,-0.00662 -0.01323,0 -0.01985,0 -0.01323,0 -0.02664,0.00218 -0.03969,0 -0.0269,-0.00448 -0.05237,-0.015987 -0.07937,-0.019844 -0.01964,-0.00281 -0.03969,0 -0.05953,0 h -0.03969 -0.05953 -0.257969 -0.05953 c -0.01985,0 -0.04028,0.00481 -0.05953,0 -0.0091,-0.00227 -0.01096,-0.016886 -0.01985,-0.019844 -0.01255,-0.00418 -0.02646,0 -0.03969,0 -0.0067,0 -0.01392,0.00296 -0.01985,0 -0.0084,-0.00418 -0.01206,-0.014655 -0.01985,-0.019844 -0.03944,0.00124 -0.04058,-0.040581 -0.05953,-0.059531 -0.03261,-0.019402 -0.01434,0.00956 -0.05953,0.039688 0,0.033073 0.0047,0.066479 0,0.099219 -0.0021,0.014642 -0.01694,0.025184 -0.01985,0.039688 -0.0039,0.019459 0,0.039688 0,0.059531 v 0.019844 c 0,0.00662 0.0047,0.015167 0,0.019844 -0.0047,0.00468 -0.01323,0 -0.01985,0 -0.0067,0 -0.01392,-0.00296 -0.01985,0 -0.0084,0.00418 -0.01097,0.016886 -0.01985,0.019844 -0.01255,0.00419 -0.02646,0 -0.03969,0 h -0.09922 -0.05953 c -0.0067,0 -0.01517,-0.00468 -0.01985,0 -0.0047,0.00468 0.0013,0.013358 0,0.019844 -0.0053,0.026743 -0.01121,0.053501 -0.01985,0.079376 -0.0047,0.014031 -0.01435,0.025954 -0.01985,0.039688 -0.0077,0.019421 -0.01049,0.040822 -0.01985,0.059531 -0.0041,0.00837 -0.01688,0.010973 -0.01985,0.019843 -0.0041,0.01255 0.0059,0.027857 0,0.039686 -0.003,0.0059 -0.01517,-0.00468 -0.01985,0 -0.0047,0.00468 0.0047,0.015163 0,0.019843 -0.0047,0.00468 -0.01323,0 -0.01985,0 h -0.01985 c -0.01985,0 -0.04027,0.00482 -0.05953,0 -0.0091,-0.0023 -0.01049,-0.019843 -0.01985,-0.019843 -0.0067,0 0.0053,0.015941 0,0.019843 -0.06536,0.047786 -0.09913,1.4e-6 -0.218282,2.1e-6 -0.0067,-0.013226 -0.01517,-0.025654 -0.01985,-0.039686 -0.0021,-0.00626 0,-0.013226 0,-0.019843 0,-0.00662 0.0047,-0.01517 0,-0.019843 -0.0047,-0.00468 -0.01688,0.0059 -0.01985,0 -0.01984,-0.039687 0.0099,-0.029766 0,-0.059531 -0.0047,-0.014031 -0.01517,-0.025655 -0.01984,-0.039688 -0.0021,-0.00628 0.003,-0.013928 0,-0.019844 -0.0041,-0.00837 -0.01323,-0.013229 -0.01985,-0.019844 -0.0067,-0.00662 -0.01323,-0.013229 -0.01985,-0.019844 -0.01323,-0.013229 -0.02232,-0.032739 -0.03969,-0.039688 -0.01842,-0.00737 -0.04008,0.0039 -0.05953,0 -0.0145,-0.0029 -0.025335,-0.016256 -0.03969,-0.019844 -0.012834,-0.00321 -0.02664,0.00218 -0.03969,0 -0.026901,-0.00448 -0.052632,-0.014495 -0.079371,-0.019844 -0.00648,-0.0013 -0.015165,0.00468 -0.019845,0 -0.00468,-0.00468 0.00468,-0.015167 0,-0.019844 -0.00468,-0.00468 -0.015174,0.00468 -0.019845,0 -0.00468,-0.00468 0,-0.013229 0,-0.019844 v -0.039688 c 0,-0.00662 0.00297,-0.013927 0,-0.019844 -0.017253,-0.034497 -0.03969,-0.066146 -0.059526,-0.099219 z"
     id="path6"
     sodipodi:nodetypes="sccccccssccscscccsscccscccccccsscssssscccsssssscsccssssssscsccssccccssscsscssccccsccsscsssscsscss" />
  <path
     style="vector-effect:non-scaling-stroke;fill:#ffffff;stroke:#fefefe;stroke-width:0.72;stroke-linecap:butt;stroke-linejoin:miter;stroke-dasharray:none;stroke-opacity:1;-inkscape-stroke:hairline"
     d="m 5.4321955,5.8687586 c 0.026458,0.019844 0.051856,0.041186 0.079376,0.059531 0.012307,0.00821 0.027381,0.01164 0.039688,0.019844 0.00779,0.00519 0.013229,0.013229 0.019844,0.019844 0.019844,0.019844 0.036182,0.043965 0.059531,0.059531 0.017404,0.011603 0.042798,0.00729 0.059531,0.019844 0.011832,0.00887 0.00939,0.029229 0.019844,0.039688 0.010459,0.010459 0.027855,0.010969 0.039688,0.019844 0.014967,0.011226 0.026458,0.026458 0.039688,0.039688 0.00662,0.00662 0.014231,0.012361 0.019844,0.019844 0.014309,0.019079 0.022823,0.042667 0.039688,0.059531 0.016864,0.016864 0.041423,0.024167 0.059531,0.039688 0.028409,0.024351 0.050965,0.055024 0.079376,0.079376 0.018108,0.015521 0.04121,0.02442 0.059531,0.039688 0.021559,0.017966 0.039688,0.039688 0.059531,0.059531 l 0.059531,0.059531 0.059531,0.059531 c 0.019844,0.019843 0.041269,0.038225 0.059531,0.05953 0.021524,0.025114 0.034421,0.057852 0.059531,0.079375 0.02246,0.019253 0.05429,0.024012 0.079376,0.039686 0.062895,0.039312 0.073778,0.053935 0.1190626,0.099219 0.010757,0.010757 0.029576,0.020225 0.019843,0.039686 -0.00418,0.00837 -0.013228,0.013226 -0.019843,0.019843 -0.013229,0.013226 -0.02472,0.028462 -0.039688,0.039686 -0.011832,0.00887 -0.026846,0.012506 -0.039688,0.019843 -0.033488,0.019138 -0.067834,0.037116 -0.099219,0.05953 -0.015224,0.010872 -0.023645,0.03006 -0.039688,0.039686 -0.017937,0.010764 -0.039688,0.013226 -0.059531,0.019843 -0.019844,0.00662 -0.039688,0.013226 -0.059531,0.019843 -0.019844,0.00662 -0.039419,0.014098 -0.059531,0.019843 -0.026223,0.00747 -0.053152,0.012357 -0.079376,0.019845 -0.020112,0.00576 -0.039688,0.01323 -0.059531,0.019845 -0.019844,0.00666 -0.03902,0.015741 -0.059531,0.019845 -0.012973,0.00261 -0.026458,0 -0.039688,0 h -0.039688 -0.039688 c -0.019844,0 -0.039958,0.00324 -0.059531,0 -0.020633,-0.00342 -0.039238,-0.014769 -0.059531,-0.019845 -0.00642,-0.00162 -0.013568,0.00207 -0.019844,0 -0.014031,-0.00468 -0.025655,-0.015165 -0.039688,-0.019845 -0.00628,-0.00207 -0.013229,0 -0.019844,0 -0.00662,0 -0.013928,0.00297 -0.019844,0 -0.07129,-0.035649 0.070995,-0.014625 -0.079375,-0.039686 -0.019574,-0.00324 -0.039958,0.00324 -0.059531,0 -0.020633,-0.00346 -0.038899,-0.016402 -0.059531,-0.019843 -0.019574,-0.00324 -0.039688,0 -0.059531,0 h -0.059531 -0.039688 c -0.00662,0 -0.019844,-0.00662 -0.019844,0 0,0.00662 0.013927,-0.00295 0.019844,0 0.00837,0.00418 0.014231,0.012362 0.019844,0.019843 0.014309,0.01908 0.025825,0.040126 0.039688,0.05953 0.019223,0.02691 0.040307,0.05247 0.059531,0.07938 0.013862,0.019404 0.025378,0.040446 0.039688,0.059526 0.00562,0.00747 0.019844,0.010494 0.019844,0.019845 0,0.00666 -0.013229,0 -0.019844,0 h -0.079376 c -0.026458,0 -0.053707,0.00639 -0.079376,0 -0.028698,-0.0072 -0.052916,-0.02646 -0.079375,-0.03969 -0.033073,-0.00666 -0.066294,-0.012528 -0.099219,-0.019845 -0.044141,0.018504 -0.081871,-0.030393 -0.1190627,-0.03969 -0.012834,-0.00324 -0.027855,0.00594 -0.039688,0 -0.00592,-0.00297 0.00468,-0.015174 0,-0.019845 -0.00468,-0.00468 -0.013229,0 -0.019844,0 -0.00662,0 -0.013927,0.00297 -0.019844,0 -0.00837,-0.00414 -0.011477,-0.01566 -0.019844,-0.019845 -0.00592,-0.00297 -0.013568,0.00207 -0.019844,0 -0.014032,-0.00468 -0.025655,-0.015165 -0.039688,-0.019845 -0.00628,-0.00207 -0.013928,0.00297 -0.019844,0 -0.00837,-0.00414 -0.013229,-0.01323 -0.019844,-0.019845 -0.00662,-0.00666 -0.013229,-0.01323 -0.019844,-0.019845 -0.019844,-0.019843 -0.036182,-0.043963 -0.059531,-0.05953 -0.017404,-0.011599 -0.041595,-0.00908 -0.059531,-0.019843 -0.016043,-0.00963 -0.022954,-0.03132 -0.039688,-0.039686 -0.011832,-0.0059 -0.026458,0 -0.039688,0 -0.00662,0 -0.013928,0.00295 -0.019844,0 -0.00837,-0.00418 -0.011477,-0.01566 -0.019844,-0.019843 -0.00592,-0.00295 -0.015167,0.00468 -0.019844,0 -0.00468,-0.00468 0,-0.013226 0,-0.019843 v -0.039686 c 0,-0.013226 -0.00592,-0.027857 0,-0.039686 0.023599,-0.047196 0.081466,-0.052517 0.1190627,-0.079375 0.226189,-0.1615637 -0.1109149,0.027691 0.1389064,-0.079375 0.021921,-0.0094 0.039688,-0.02646 0.059531,-0.039686 0.019844,-0.013226 0.04121,-0.024422 0.059531,-0.039686 0.021559,-0.017964 0.037618,-0.041998 0.059531,-0.05953 0.01155,-0.00924 0.027855,-0.010973 0.039688,-0.019843 0.014967,-0.011225 0.026458,-0.026458 0.039688,-0.039687 l 0.019844,-0.019844 c 0.00662,-0.00662 0.01566,-0.011477 0.019844,-0.019844 0.00296,-0.00592 -0.0021,-0.013568 0,-0.019844 0.00468,-0.014031 0.016257,-0.025339 0.019844,-0.039688 0.00321,-0.012834 -0.00321,-0.026853 0,-0.039688 0.00358,-0.014349 0.016256,-0.025339 0.019844,-0.039688 0.00321,-0.012834 0,-0.026458 0,-0.039688 v -0.059531 c 0,-0.00662 -0.0021,-0.013568 0,-0.019844 0.00468,-0.014031 0.015167,-0.025655 0.019844,-0.039688 0.0021,-0.00628 -0.00296,-0.013928 0,-0.019844 0.00418,-0.00837 0.01566,-0.011477 0.019844,-0.019844 0.00296,-0.00592 -0.00296,-0.013927 0,-0.019844 0.00419,-0.00837 0.013229,-0.013229 0.019844,-0.019844 0.029014,-0.029014 0.056027,-0.068577 0.099219,-0.079376 0.041917,-0.01048 0.041899,0.017632 0.079375,-0.019844 0.00468,-0.00468 -0.00296,-0.013927 0,-0.019844 0.041293,-0.082585 -0.00137,0.021214 0.039688,-0.019844 0.00468,-0.00468 -0.00468,-0.015167 0,-0.019844 0.00468,-0.00468 0.013229,0 0.019844,0 l 0.059531,-0.079375 z"
     id="path5"
     sodipodi:nodetypes="cscsssssssssssscscscsscccssccccccscsccccsccccscsssccscsssccccscsscccscccscssccssccsscccsssccccssccsssssscscccc" />
  <path
     d="M 13.76,0.8 H 2.24 C 1.448,0.8 0.8072,1.448 0.8072,2.24 L 0.8,15.2 3.68,12.32 h 10.08 c 0.792,0 1.44,-0.648 1.44,-1.44 V 2.24 C 15.2,1.448 14.552,0.8 13.76,0.8 Z M 2.96,9.44 5.48,6.2 7.28,8.3672 9.8,5.12 13.04,9.44 Z"
     id="path2"
     style="display:inline;stroke-width:0.72"
     sodipodi:nodetypes="sscccsssscccccc" />
</svg>
